<?xml version="1.0" encoding="UTF-8"?>
<svg id="Camada_1" xmlns="http://www.w3.org/2000/svg" viewBox="0 0 1080 1080">
  <defs>
    <style>
      .cls-1 {
        fill-rule: evenodd;
      }

      .cls-1, .cls-2 {
        fill: #003366;
      }
    </style>
  </defs>
  <g>
    <path class="cls-1" d="M253,172.26c-2.32-2.33-5.42-3.62-8.72-3.62s-6.41,1.29-8.73,3.62c-2.33,2.32-3.62,5.42-3.62,8.73s1.29,6.4,3.62,8.72l27.45,27.45c2.32,2.33,5.42,3.62,8.72,3.62s6.4-1.29,8.72-3.62l54.88-54.88c2.35-2.33,3.64-5.45,3.62-8.74,0-3.3-1.29-6.38-3.62-8.7-2.32-2.33-5.42-3.62-8.72-3.62s-6.4,1.29-8.72,3.62l-46.17,46.15-18.72-18.72Z"/>
    <path class="cls-1" d="M380.46,84.46l-90.57-29.37c-2.33-.75-4.75-1.13-7.19-1.13s-4.87.38-7.2,1.13l-90.54,29.37c-9.65,3.13-16.13,12.03-16.13,22.16v55.15c0,66.56,38.57,119.29,105.84,144.67,2.58.96,5.28,1.46,8.02,1.46s5.46-.5,8.02-1.46c67.28-25.38,105.86-78.12,105.86-144.67v-55.14c0-10.14-6.48-19.04-16.12-22.17ZM371.9,161.77c0,55.72-32.77,100.03-88.52,121.57-57.11-21.53-89.88-65.85-89.88-121.57v-54.15l89.2-28.92,89.2,28.92v54.15Z"/>
  </g>
  <path class="cls-2" d="M754.11,342.46c-67.67.33-349.45.26-404.81,0-9.16-.04-15.18,2.38-20.46,10.32-22.85,34.35-46.39,68.24-69.63,102.33-8.27,12.13-8.22,12.18,5.82,16.44,67.34,20.46,136.07,31.64,205.66,36.96,9.6.73,19.21,1.35,28.84,1.87,12.41.67,24.84,1.2,37.29,1.54,35.46.97,70.84-1.77,106.2-4.48,66.79-5.11,132.28-16.96,196.45-36.31,9.91-2.99,11.75-5.82,5.48-14.76-23.9-34.13-47.4-68.55-70.52-103.22-5.21-7.81-11.02-10.72-20.3-10.68Z"/>
  <path class="cls-2" d="M212.42,646.22c.34,9.54,4.99,11.51,13.34,11.56,30.02.16,60,1.67,89.98,3.3,13.2.72,26.47.12,41.49.12-7.54-10.09-15.29-16.84-25.64-19.5-39.04-10.02-78.17-19.69-117.26-29.54-5.87-1.48-6.82.81-5.82,6.19,1.72,9.22,3.58,18.54,3.91,27.87Z"/>
  <polygon class="cls-2" points="1051.67 67.48 795.08 1012.52 826.95 1012.52 1083.53 67.48 1051.67 67.48"/>
  <path class="cls-2" d="M532.69,278.38c6.29,0,12.59,0,18.88,0,3.49,0,6.97,0,10.46,0,64.19.01,128.38.17,192.56-.08,28.73-.11,50.78,11.31,66.97,35.03,21.74,31.87,43.66,63.61,65.55,95.38l7.11-26.37,1.99-7.37c-17.35-25.26-34.73-50.49-51.95-75.83-21.65-31.86-51.23-47.33-89.92-47.23-61.75.15-123.5.24-185.25.27-9.78,0-19.56,0-29.34,0-49.84,0-99.69-.13-149.53-.27-5.98,9.44-12.97,18.28-20.94,26.44,54.47.08,108.94.05,163.41.04Z"/>
  <path class="cls-2" d="M768.69,788.75c-114.73,0-419.15,0-441.95,0-21.64,0-23.38,12.27-23.38,45.43,0,28.91-7.74,36.29-36.9,36.29-29.71,0-59.42.1-89.13-.04-18.88-.09-28.15-9.28-28.16-28.1-.08-92.43,0-233.68-.12-326.12,0-6.91,1.7-12.77,5.63-18.47,39.51-57.37,78.91-114.82,118.3-172.27-1.68-.41-3.37-.78-4.99-1.4-7.07-2.67-13.76-5.7-20.26-8.9-23.45,34.26-47,68.46-70.49,102.71-11.09,16.18-10.95,16.1-23.68,1.54-6.62-7.57-11.32-18.22-23.51-18.28-39.21-.21-78.42-.25-117.62-.01-8.88.05-15.02,4.83-15.65,14.27-2.32,35.05,8.94,64.07,38.39,84.78,22.29,15.67,47.78,16.92,73.59,15.59,10.74-.55,14.37,2.91,14.24,13.95-.55,44.98-.23,116.53-.22,161.52,0,43.75-.07,109.75.03,153.5.07,31.25,20.68,51.95,51.88,52.08,33.43.14,66.86.09,100.29.02,31.63-.07,51.13-17.11,54.41-48.78.92-8.93-3.85-33.08,12.41-33.08,15.44.02,30.88-.02,46.32,0,9.78,0,19.56,0,29.34,0,115.11.08,230.22.13,345.33-.02,7.83,0,10.83,4.92,11.9,11.09l9.27-34.4c-4.04-1.75-8.85-2.89-15.23-2.89ZM120.43,487.98c-14,.15-28.02.36-41.99-.34-26.77-1.34-49.65-22.85-54.17-49.31-1.2-7.03,1.03-9,7.37-8.96,14.82.09,62.76-.7,71.56-.99,33.6-1.1,32.11,8.64,42.48,23.21,1.17,1.64,2.51,3.53,2.71,5.42.8,7.57-20.13,30.88-27.96,30.97Z"/>
  <path class="cls-2" d="M762.74,316.12c-70.31.55-140.63.27-210.95.26-.24,0-.47,0-.71,0-9.54,0-19.09.01-28.63.02-61.01.05-122.02.18-183.03-.27-12.51-.09-20.63,3.44-27.46,14.24-13.89,21.94-29.17,43.01-43.84,64.46-14.91,21.79-29.87,43.54-44.64,65.43-10.28,15.23-7.93,21.92,9.6,28.57,2.7,1.02,5.43,1.97,8.16,2.89,72.46,24.45,146.89,37.04,222.39,42.93,9.59.75,19.19,1.44,28.81,1.98,10.21.57,20.43,1.09,30.68,1.44,59.84,2.09,119.5-1.97,178.78-9.92,55.56-7.45,110.24-19.23,163.23-37.85l3.68-13.66,6.2-23c-27.97-40.88-56.19-81.58-83.68-122.78-7.27-10.89-15.59-14.86-28.59-14.76ZM839.45,471.12c-64.17,19.35-129.65,31.21-196.45,36.31-35.36,2.7-70.74,5.45-106.2,4.48-12.45-.34-24.88-.87-37.29-1.54-9.63-.52-19.24-1.14-28.84-1.87-69.58-5.32-138.32-16.5-205.66-36.96-14.04-4.27-14.09-4.31-5.82-16.44,23.25-34.09,46.78-67.98,69.63-102.33,5.28-7.94,11.31-10.36,20.46-10.32,55.36.26,337.14.33,404.81,0,9.28-.04,15.09,2.87,20.3,10.68,23.12,34.67,46.62,69.09,70.52,103.22,6.27,8.95,4.42,11.78-5.48,14.76Z"/>
  <path class="cls-2" d="M710.5,682.51c1.82-.02,3.65,0,5.47,0,0-.15,0-.3-.01-.46,32.81-1.1,65.65-1.84,98.43-3.5l5.33-19.76c-25.44.82-50.89,1.65-76.33,2.51,0,.13,0,.27,0,.4-5.76,0-11.53.05-17.29-.03-2.02-.03-4.71.98-5.82-1.26-1.36-2.76,1.42-4.34,2.97-6.01,6.15-6.61,13.73-11.1,22.41-13.29,28.16-7.11,56.35-14.1,84.52-21.17l5.82-21.6c-31.32,7.71-62.65,15.36-93.91,23.33-21.24,5.41-36.77,18.25-45.87,38.43-7.41,16.45-3.48,22.58,14.26,22.41Z"/>
  <path class="cls-2" d="M186.64,604.54c2.75,19.52,5.7,39.02,8.63,58.51,1.61,10.7,4.35,13.3,15.48,13.71,49.47,1.83,98.94,3.52,148.41,5.26l-.02.51h8.21c14.27,0,18.16-5.46,12.9-18.92-8.56-21.89-24.32-36.13-47.11-41.91-43.55-11.04-87.18-21.8-130.82-32.49-12.43-3.04-17.56,2.06-15.69,15.33ZM214.33,612.16c39.09,9.85,78.22,19.52,117.26,29.54,10.35,2.66,18.1,9.41,25.64,19.5-15.03,0-28.29.6-41.49-.12-29.98-1.63-59.96-3.14-89.98-3.3-8.35-.05-13-2.01-13.34-11.56-.33-9.33-2.19-18.64-3.91-27.87-1-5.39-.05-7.67,5.82-6.19Z"/>
  <path class="cls-2" d="M992.33,68.58c-7.42-9.7-18.69-15.26-30.91-15.26h-338.24c-17.56,0-33.02,11.85-37.59,28.8l-37.31,138.44h29.34l35.32-131.07c1.24-4.62,5.45-7.84,10.24-7.84h338.24c3.33,0,6.4,1.51,8.42,4.16,2.02,2.63,2.68,5.99,1.82,9.2l-77.44,287.34-7.11,26.37h0s-12.11,44.94-12.11,44.94h0l-6.2,23-84.89,314.99h0l-9.27,34.4h0s-44.32,164.46-44.32,164.46c-1.24,4.63-5.46,7.85-10.24,7.85h-338.24c-3.33,0-6.39-1.51-8.42-4.15-2.02-2.65-2.69-6.01-1.82-9.22l35.81-132.89h-29.34l-33.83,125.53c-3.17,11.8-.73,24.12,6.7,33.82,7.42,9.68,18.69,15.25,30.89,15.25h338.24c17.56,0,33.02-11.85,37.59-28.81L999,102.38c3.19-11.79.75-24.11-6.68-33.8Z"/>
  <rect class="cls-2" x="779.28" y="791.03" width="0" height="35.63"/>
  <polygon class="cls-2" points="887.12 408.71 894.23 382.34 887.12 408.71 887.12 408.71"/>
  <polygon class="cls-2" points="875.01 453.65 875.01 453.65 868.81 476.65 875.01 453.65"/>
</svg>