<?xml version="1.0" encoding="UTF-8"?>
<svg id="Camada_1" xmlns="http://www.w3.org/2000/svg" viewBox="0 0 1080 1080">
  <defs>
    <style>
      .cls-1 {
        fill: #003366;
      }
    </style>
  </defs>
  <g>
    <polygon class="cls-1" points="757.49 1011.1 725.72 1011.1 981.53 68.9 1013.3 68.9 757.49 1011.1"/>
    <path class="cls-1" d="M523.34,181.13c0-2.04-.82-3.87-2.14-5.22l-3.32,12.31c3.13-.9,5.46-3.67,5.46-7.09Z"/>
    <path class="cls-1" d="M922.37,69.99c-7.4-9.67-18.64-15.22-30.82-15.22h-337.23c-17.51,0-32.92,11.81-37.48,28.72l-39.64,147.1h29.25l37.66-139.76c1.24-4.6,5.43-7.82,10.21-7.82h337.23c3.32,0,6.38,1.51,8.4,4.14,2.01,2.63,2.68,5.98,1.82,9.17l-240.61,892.82c-1.24,4.61-5.44,7.82-10.21,7.82h-337.23c-3.32,0-6.37-1.51-8.39-4.13-2.02-2.64-2.68-5.99-1.82-9.19l33.74-125.19h-29.25l-31.76,117.84c-3.16,11.76-.73,24.05,6.68,33.72,7.4,9.66,18.63,15.2,30.8,15.2h337.23c17.51,0,32.92-11.81,37.48-28.72L929.03,103.7c3.18-11.76.75-24.04-6.66-33.7Z"/>
  </g>
  <path class="cls-1" d="M433.23,448.24c-3.64-3.64-9.49-3.64-13.06,0l-148.02,148.02c-3.64,3.64-3.64,9.49,0,13.06,1.79,1.79,4.19,2.71,6.53,2.71s4.74-.92,6.53-2.71l148.02-148.02c3.64-3.64,3.64-9.49,0-13.06h0Z"/>
  <g>
    <path class="cls-1" d="M528.74,691.16l-29.09-29.09c-3.64-3.64-9.49-3.64-13.06,0-3.57,3.64-3.64,9.49,0,13.06l29.09,29.09-29.09,29.09c-3.64,3.64-3.64,9.49,0,13.06,1.79,1.79,4.19,2.71,6.53,2.71s4.74-.92,6.53-2.71l29.09-29.09,29.09,29.09c1.79,1.79,4.19,2.71,6.53,2.71s4.74-.92,6.53-2.71c3.64-3.64,3.64-9.49,0-13.06l-29.09-29.09,29.09-29.09c3.64-3.64,3.64-9.49,0-13.06-3.64-3.57-9.49-3.64-13.06,0l-29.09,29.09Z"/>
    <path class="cls-1" d="M89.99,561.13l40.92,13.68c5.11,1.73,8.81,5.67,10.17,10.85,1.36,5.18.12,10.41-3.39,14.42l-28.65,32.29c-9.92,11.22-11.46,26.81-4.01,39.69,7.46,12.94,21.75,19.35,36.36,16.39l42.33-8.63c5.24-1.05,10.41.49,14.17,4.25s5.3,8.94,4.25,14.17l-8.63,42.33c-2.96,14.6,3.45,28.9,16.39,36.36,12.94,7.46,28.53,5.92,39.75-4.01l32.29-28.65c4.01-3.57,9.31-4.74,14.42-3.39,5.18,1.42,9.12,5.11,10.78,10.17l13.68,40.92c4.74,14.17,17.44,23.29,32.35,23.29s27.61-9.18,32.35-23.29l13.68-40.92c1.73-5.11,5.67-8.81,10.78-10.17,5.18-1.36,10.41-.12,14.42,3.39l.86.8c16.7,42.09,57.93,70.25,103.34,70.25,61.25,0,111.04-49.79,111.04-111.04,0-45.42-28.16-86.58-70.25-103.34l-.8-.92c-3.51-4.01-4.81-9.24-3.39-14.42,1.42-5.18,5.11-9.12,10.17-10.78l40.92-13.68c14.17-4.74,23.29-17.44,23.29-32.35s-9.18-27.61-23.29-32.35l-40.92-13.68c-5.11-1.73-8.81-5.67-10.23-10.85-1.36-5.18-.12-10.41,3.39-14.42l28.65-32.29c9.92-11.22,11.46-26.81,4.01-39.69-7.46-12.94-21.75-19.35-36.36-16.39l-42.33,8.63c-5.24,1.05-10.41-.49-14.17-4.25-3.76-3.76-5.3-8.94-4.25-14.17l8.63-42.33c2.96-14.6-3.45-28.9-16.39-36.36-12.94-7.46-28.53-5.92-39.75,4.01l-32.29,28.65c-4.01,3.57-9.24,4.81-14.42,3.39-5.18-1.42-9.12-5.11-10.78-10.17l-13.68-40.92c-4.56-14.17-17.25-23.36-32.17-23.36s-27.61,9.18-32.35,23.29l-13.68,40.92c-1.73,5.11-5.67,8.81-10.78,10.17-5.18,1.36-10.41.12-14.42-3.39l-32.29-28.65c-11.22-9.86-26.81-11.46-39.69-4.01-12.94,7.46-19.35,21.75-16.39,36.36l8.63,42.33c1.05,5.24-.49,10.41-4.25,14.17-3.76,3.76-8.94,5.3-14.17,4.25l-42.33-8.63c-14.6-2.96-28.9,3.45-36.36,16.39-7.46,12.94-5.92,28.53,4.01,39.75l28.65,32.29c3.51,4.01,4.81,9.24,3.39,14.42-1.42,5.18-5.11,9.12-10.17,10.85l-40.92,13.68c-14.23,4.74-23.42,17.44-23.42,32.35s9.18,27.61,23.29,32.35h0ZM487.83,600.94c-1.6.62-3.08,1.42-4.68,2.16-1.54.68-3.14,1.36-4.62,2.1-2.16,1.11-4.25,2.34-6.29,3.57-1.36.8-2.77,1.6-4.13,2.46-2.22,1.42-4.31,3.02-6.41,4.62-1.11.86-2.28,1.6-3.33,2.46-2.9,2.4-5.73,4.93-8.38,7.64-.25.25-.49.43-.68.68-2.71,2.77-5.3,5.73-7.7,8.75-.86,1.05-1.6,2.22-2.4,3.33-1.54,2.16-3.14,4.25-4.56,6.53-.86,1.36-1.54,2.77-2.34,4.13-1.23,2.1-2.4,4.25-3.51,6.41-.74,1.48-1.36,3.08-2.03,4.56-.68,1.6-1.48,3.14-2.1,4.81-22.37,12.26-47.7,18.67-73.45,18.67-84.79,0-153.75-68.96-153.75-153.75s68.96-153.75,153.75-153.75,153.75,68.96,153.75,153.75c.06,24.83-5.85,49.24-17.13,70.87h0ZM621.3,704.28c0,51.02-41.53,92.56-92.56,92.56-38.33,0-73.15-24.03-86.7-59.9-.06-.18-.12-.37-.18-.55-3.82-10.29-5.73-21.07-5.73-32.11,0-10.11,1.66-20.15,4.87-29.7,7.83-23.23,25.02-42.64,46.83-53.43,3.14-1.54,6.35-2.9,9.61-4.07h.06c20.09-7.27,43.01-7.21,63.35.31.18.06.37.12.49.18,35.93,13.56,59.96,48.31,59.96,86.7h0ZM95.9,513.93l40.92-13.68c10.91-3.64,19.23-12.45,22.18-23.54,2.96-11.09.18-22.86-7.39-31.43l-28.65-32.29c-5.48-6.22-4.56-13.5-1.85-18.24,2.71-4.74,8.57-9.12,16.7-7.52l42.33,8.63c11.28,2.34,22.86-1.17,30.93-9.31,8.13-8.13,11.59-19.66,9.31-30.93l-8.63-42.33c-1.66-8.13,2.77-13.93,7.52-16.7,4.74-2.71,12.02-3.7,18.24,1.85l32.29,28.65c8.63,7.64,20.34,10.35,31.43,7.39,11.09-2.96,19.9-11.28,23.54-22.18l13.68-40.92c2.59-7.83,9.37-10.66,14.79-10.66s12.2,2.83,14.85,10.72l13.68,40.92c3.64,10.91,12.45,19.23,23.54,22.18,11.09,2.96,22.86.18,31.49-7.39l32.29-28.65c6.22-5.55,13.5-4.56,18.24-1.85,4.68,2.71,9.18,8.5,7.52,16.7l-8.63,42.33c-2.28,11.28,1.17,22.86,9.31,30.93,8.13,8.13,19.66,11.59,30.93,9.31l42.33-8.63c8.2-1.66,13.93,2.77,16.7,7.52,2.71,4.74,3.7,11.95-1.85,18.24l-28.65,32.29c-7.64,8.63-10.35,20.34-7.39,31.43,2.96,11.09,11.28,19.9,22.18,23.54l40.92,13.68c7.89,2.65,10.72,9.37,10.72,14.85s-2.83,12.2-10.72,14.85l-40.92,13.68c-10.91,3.64-19.23,12.45-22.18,23.54-1.23,4.56-1.48,9.24-.8,13.74-5.73-.92-11.46-1.36-17.25-1.36h-1.11c-5.79,0-11.59.43-17.25,1.36,8.2-20.34,12.45-42.27,12.45-64.4,0-94.96-77.27-172.24-172.24-172.24s-172.24,77.27-172.24,172.24,77.27,172.24,172.24,172.24c23.36,0,46.34-4.81,67.54-13.87-.74,5.18-1.17,10.41-1.17,15.71,0,3.14.12,6.29.43,9.37.06.99.25,2.03.37,3.02.18,1.85.37,3.7.68,5.55-4.5-.68-9.18-.43-13.74.8-11.09,2.96-19.9,11.28-23.54,22.18l-13.68,40.92c-2.65,7.89-9.37,10.72-14.85,10.72s-12.2-2.83-14.85-10.72l-13.68-40.92c-3.64-10.91-12.45-19.23-23.54-22.18-2.96-.8-5.92-1.17-8.87-1.17-8.2,0-16.27,2.96-22.62,8.57l-32.29,28.65c-6.22,5.48-13.5,4.56-18.24,1.85-4.68-2.71-9.18-8.5-7.52-16.7l8.63-42.33c2.28-11.28-1.17-22.86-9.31-30.93-8.13-8.13-19.66-11.59-30.93-9.31l-42.33,8.63c-8.13,1.66-13.99-2.77-16.7-7.52-2.71-4.74-3.7-11.95,1.85-18.24l28.65-32.29c7.64-8.63,10.41-20.34,7.39-31.43-2.96-11.09-11.28-19.9-22.18-23.54l-40.92-13.68c-7.95-2.65-10.78-9.43-10.78-14.85s2.83-12.2,10.72-14.85h0Z"/>
    <path class="cls-1" d="M402.79,541.23c-20.77,0-37.65,16.88-37.65,37.65s16.88,37.65,37.65,37.65,37.65-16.88,37.65-37.65-16.88-37.65-37.65-37.65h0ZM402.79,598.11c-10.6,0-19.16-8.63-19.16-19.16s8.63-19.16,19.16-19.16,19.16,8.63,19.16,19.16-8.57,19.16-19.16,19.16Z"/>
  </g>
  <path class="cls-1" d="M303.39,518c21.2,0,38.51-17.25,38.51-38.51s-17.25-38.51-38.51-38.51-38.51,17.25-38.51,38.51,17.25,38.51,38.51,38.51ZM303.39,459.45c11.03,0,20.03,9,20.03,20.03s-9,20.03-20.03,20.03-20.03-9-20.03-20.03,9-20.03,20.03-20.03Z"/>
</svg>