<?xml version="1.0" encoding="UTF-8"?>
<svg id="Camada_1" xmlns="http://www.w3.org/2000/svg" viewBox="0 0 1080 1080">
  <defs>
    <style>
      .cls-1 {
        fill: #003366;
      }
    </style>
  </defs>
  <g>
    <polygon class="cls-1" points="755.02 1011.07 723.25 1011.07 979.07 68.87 1010.84 68.87 755.02 1011.07"/>
    <path class="cls-1" d="M520.87,181.09c0-2.04-.82-3.87-2.14-5.22l-3.32,12.31c3.13-.9,5.46-3.67,5.46-7.09Z"/>
    <path class="cls-1" d="M919.9,69.96c-7.4-9.67-18.64-15.22-30.82-15.22h-337.23c-17.51,0-32.92,11.81-37.48,28.72l-39.64,147.1h29.25l37.66-139.76c1.24-4.6,5.43-7.82,10.21-7.82h337.23c3.32,0,6.38,1.51,8.4,4.14,2.01,2.63,2.68,5.98,1.82,9.17l-240.61,892.82c-1.24,4.61-5.44,7.82-10.21,7.82h-337.23c-3.32,0-6.37-1.51-8.39-4.13-2.02-2.64-2.68-5.99-1.82-9.19l33.74-125.19h-29.25l-31.76,117.84c-3.16,11.76-.73,24.05,6.68,33.72,7.4,9.66,18.63,15.2,30.8,15.2h337.23c17.51,0,32.92-11.81,37.48-28.72L926.56,103.66c3.18-11.76.75-24.04-6.66-33.7Z"/>
  </g>
  <g>
    <path class="cls-1" d="M563.7,424.27l-16.32,6.81,13.33,31.97h-58.22v17.69h65.59l22.11,53.06-22.11,53.06h-134.88c-23.66-21.88-55.18-35.37-89.88-35.37s-66.22,13.49-89.88,35.37H104.54v17.69h132.89c-16.73,22.2-26.78,49.71-26.78,79.59,0,73.14,59.51,132.65,132.65,132.65s132.65-59.51,132.65-132.65c0-29.88-10.05-57.39-26.78-79.59h111.53l-13.32,31.97,16.32,6.81,45.62-109.52-45.63-109.52ZM458.26,684.12c0,63.39-51.57,114.96-114.96,114.96s-114.96-51.57-114.96-114.96,51.57-114.96,114.96-114.96,114.96,51.57,114.96,114.96Z"/>
    <path class="cls-1" d="M140,547.85l155.82-84.41,19.6,19.6-36.35,4.55c-13.8,1.72-24.2,13.51-24.2,27.41,0,15.24,12.4,27.63,27.63,27.63,5.46,0,10.97-.3,16.4-.91l78.01-8.67,11.32-45.29-37.32-52.25,47.89-6.84,17.41,60.9h50.88c14.63,0,26.53-11.9,26.53-26.53s-11.9-26.53-26.53-26.53h-10.44l-7.86-39.31-34.66-41.58c-8.67-10.42-21.41-16.39-34.96-16.39-2.11,0-4.22.19-6.31.48l-37.18-18.59-75.79,15.16c-13.18,2.64-22.74,14.3-22.74,27.73,0,15.59,12.69,28.28,28.28,28.28h4.86l-2.5,1.36-158.15,99.89c-8.75,5.53-13.98,15.02-13.98,25.37v2.54c0,16.55,13.46,30.01,30.01,30.01,4.97,0,9.91-1.26,14.29-3.63ZM369.1,491.39l-6.36,25.44-65.78,7.3c-4.78.54-9.65.8-14.46.8-5.48,0-9.95-4.47-9.95-9.95,0-5,3.75-9.24,8.71-9.86l72.22-9.03-41.45-41.45,22.22-12.04,34.83,48.77ZM265.46,374.61c-5.85,0-10.59-4.75-10.59-10.59,0-5.02,3.58-9.4,8.52-10.39l69.83-13.96,17.53,8.76-35.69,19.47-42.37,6.58c-.55.09-1.08.13-1.63.13h-5.59ZM113.38,521.46v-2.54c0-4.24,2.15-8.14,5.74-10.42l157.66-99.61,89.07-48.58c4.08-2.22,8.68-3.4,13.34-3.4,8.29,0,16.08,3.65,21.37,10.02l31.79,38.14,9.82,49.11h24.93c4.88,0,8.84,3.96,8.84,8.84s-3.96,8.84-8.84,8.84h-37.55l-17.97-62.9-71.1,10.15-208.92,113.17c-1.8.96-3.83,1.49-5.86,1.49-6.8,0-12.33-5.53-12.33-12.33Z"/>
    <path class="cls-1" d="M458.26,374.61c29.26,0,53.06-23.8,53.06-53.06s-23.8-53.06-53.06-53.06-53.06,23.8-53.06,53.06,23.8,53.06,53.06,53.06ZM458.26,286.18c19.51,0,35.37,15.86,35.37,35.37s-15.86,35.37-35.37,35.37-35.37-15.86-35.37-35.37,15.86-35.37,35.37-35.37Z"/>
    <rect class="cls-1" x="69.16" y="586.85" width="17.69" height="17.69"/>
    <rect class="cls-1" x="69.16" y="401.14" width="17.69" height="17.69"/>
    <rect class="cls-1" x="104.54" y="401.14" width="88.43" height="17.69"/>
    <rect class="cls-1" x="86.85" y="365.77" width="17.69" height="17.69"/>
    <rect class="cls-1" x="122.22" y="365.77" width="97.27" height="17.69"/>
    <rect class="cls-1" x="104.54" y="330.4" width="17.69" height="17.69"/>
    <rect class="cls-1" x="139.91" y="330.4" width="88.43" height="17.69"/>
    <path class="cls-1" d="M343.3,586.85c-53.63,0-97.27,43.64-97.27,97.27v8.84h26.53v-17.69h-8.32c.9-8.11,3.03-15.84,6.18-23.03l7.2,4.16,8.84-15.32-7.13-4.12c4.74-6.42,10.41-12.08,16.82-16.82l4.12,7.13,15.32-8.84-4.16-7.2c7.19-3.16,14.92-5.28,23.03-6.18v8.32h17.69v-8.32c8.11.9,15.84,3.02,23.03,6.18l-4.16,7.2,15.32,8.84,4.12-7.13c6.42,4.74,12.08,10.41,16.82,16.82l-7.13,4.12,8.84,15.32,7.2-4.16c3.16,7.19,5.28,14.92,6.18,23.03h-8.32v17.69h26.53v-8.84c0-53.63-43.64-97.27-97.27-97.27Z"/>
    <rect class="cls-1" x="327.36" y="688.56" width="76.06" height="17.68" transform="translate(-414.49 589.38) rotate(-54.46)"/>
    <rect class="cls-1" x="334.46" y="754.87" width="17.69" height="17.69"/>
    <rect class="cls-1" x="369.83" y="754.87" width="17.69" height="17.69"/>
    <rect class="cls-1" x="299.09" y="754.87" width="17.69" height="17.69"/>
  </g>
</svg>